<mxfile host="app.diagrams.net" modified="2024-05-07T23:57:54.979Z" agent="Mozilla/5.0 (Windows NT 10.0; Win64; x64) AppleWebKit/537.36 (KHTML, like Gecko) Chrome/124.0.0.0 Safari/537.36 Edg/124.0.0.0" etag="Qa-kqCM7FRq5wnpa4F6h" version="23.1.5" type="github">
  <diagram name="Page-1" id="0y5NOaOPP9s0cOsPn7sN">
    <mxGraphModel dx="1113" dy="1001" grid="1" gridSize="10" guides="1" tooltips="1" connect="1" arrows="1" fold="1" page="1" pageScale="1" pageWidth="1100" pageHeight="850" math="0" shadow="0">
      <root>
        <mxCell id="0" />
        <mxCell id="1" parent="0" />
        <mxCell id="LKA8LstfFL_o_HX39kRL-60" value="DUP PUBLIC" style="swimlane;whiteSpace=wrap;html=1;" vertex="1" parent="1">
          <mxGeometry x="490" y="100" width="169" height="250" as="geometry" />
        </mxCell>
        <mxCell id="LKA8LstfFL_o_HX39kRL-64" value="Cloudflare Turnstile" style="html=1;verticalLabelPosition=bottom;align=center;labelBackgroundColor=#ffffff;verticalAlign=top;strokeWidth=2;strokeColor=#0080F0;shadow=0;dashed=0;shape=mxgraph.ios7.icons.locked;" vertex="1" parent="LKA8LstfFL_o_HX39kRL-60">
          <mxGeometry x="68" y="36" width="24" height="30" as="geometry" />
        </mxCell>
        <mxCell id="LKA8LstfFL_o_HX39kRL-77" value="Cloudflare Turnstile uses information collected from the clients browser to determine if they are human or a bot. Turnstile may ask the user to click a checkbox to further verify that the user is human. If the user passes, a token generated by Cloudflare is returned." style="text;html=1;align=left;verticalAlign=middle;whiteSpace=wrap;rounded=0;" vertex="1" parent="LKA8LstfFL_o_HX39kRL-60">
          <mxGeometry x="5" y="100" width="159" height="140" as="geometry" />
        </mxCell>
        <mxCell id="LKA8LstfFL_o_HX39kRL-62" value="DUP API" style="swimlane;whiteSpace=wrap;html=1;" vertex="1" parent="1">
          <mxGeometry x="790" y="100" width="170" height="250" as="geometry" />
        </mxCell>
        <mxCell id="LKA8LstfFL_o_HX39kRL-80" value="1. Validate CF token with CF servers.&lt;br&gt;2. Construct and store a temporary pass object with an expiry time of seven minutes in the future.&lt;br&gt;3. Return pass object encoded as a JWT back to client." style="text;html=1;align=left;verticalAlign=top;whiteSpace=wrap;rounded=0;" vertex="1" parent="LKA8LstfFL_o_HX39kRL-62">
          <mxGeometry x="10" y="90" width="160" height="150" as="geometry" />
        </mxCell>
        <mxCell id="LKA8LstfFL_o_HX39kRL-84" value="Write Pass" style="sketch=0;outlineConnect=0;fontColor=#232F3E;gradientColor=none;fillColor=#E7157B;strokeColor=none;dashed=0;verticalLabelPosition=bottom;verticalAlign=top;align=center;html=1;fontSize=12;fontStyle=0;aspect=fixed;pointerEvents=1;shape=mxgraph.aws4.endpoint;" vertex="1" parent="LKA8LstfFL_o_HX39kRL-62">
          <mxGeometry x="61" y="30" width="38" height="38" as="geometry" />
        </mxCell>
        <mxCell id="LKA8LstfFL_o_HX39kRL-63" value="Cloudflare" style="swimlane;whiteSpace=wrap;html=1;" vertex="1" parent="1">
          <mxGeometry x="790" y="490" width="170" height="180" as="geometry" />
        </mxCell>
        <mxCell id="LKA8LstfFL_o_HX39kRL-87" value="Cloudflare API" style="image;aspect=fixed;perimeter=ellipsePerimeter;html=1;align=center;shadow=0;dashed=0;spacingTop=3;image=img/lib/active_directory/internet_cloud.svg;" vertex="1" parent="LKA8LstfFL_o_HX39kRL-63">
          <mxGeometry x="55" y="30" width="50" height="31.5" as="geometry" />
        </mxCell>
        <mxCell id="LKA8LstfFL_o_HX39kRL-89" value="CF servers validate the token to ensure its authenticity and validity. CF also checks if the token is expired.&amp;nbsp;" style="text;html=1;align=left;verticalAlign=top;whiteSpace=wrap;rounded=0;" vertex="1" parent="LKA8LstfFL_o_HX39kRL-63">
          <mxGeometry x="10" y="90" width="150" height="80" as="geometry" />
        </mxCell>
        <mxCell id="LKA8LstfFL_o_HX39kRL-65" value="Client" style="image;aspect=fixed;perimeter=ellipsePerimeter;html=1;align=center;shadow=0;dashed=0;spacingTop=3;image=img/lib/active_directory/laptop_client.svg;" vertex="1" parent="1">
          <mxGeometry x="40" y="125" width="45" height="50" as="geometry" />
        </mxCell>
        <mxCell id="LKA8LstfFL_o_HX39kRL-66" value="" style="endArrow=classic;html=1;rounded=0;" edge="1" parent="1">
          <mxGeometry width="50" height="50" relative="1" as="geometry">
            <mxPoint x="100" y="160" as="sourcePoint" />
            <mxPoint x="180" y="160" as="targetPoint" />
          </mxGeometry>
        </mxCell>
        <mxCell id="LKA8LstfFL_o_HX39kRL-68" value="Connects&lt;br&gt;to DUP&lt;br&gt;Public" style="edgeLabel;html=1;align=center;verticalAlign=middle;resizable=0;points=[];" vertex="1" connectable="0" parent="LKA8LstfFL_o_HX39kRL-66">
          <mxGeometry x="-0.0828" relative="1" as="geometry">
            <mxPoint as="offset" />
          </mxGeometry>
        </mxCell>
        <mxCell id="LKA8LstfFL_o_HX39kRL-61" value="AWS" style="swimlane;whiteSpace=wrap;html=1;" vertex="1" parent="1">
          <mxGeometry x="190" y="100" width="170" height="260" as="geometry" />
        </mxCell>
        <mxCell id="LKA8LstfFL_o_HX39kRL-59" value="AWS WAF" style="sketch=0;points=[[0,0,0],[0.25,0,0],[0.5,0,0],[0.75,0,0],[1,0,0],[0,1,0],[0.25,1,0],[0.5,1,0],[0.75,1,0],[1,1,0],[0,0.25,0],[0,0.5,0],[0,0.75,0],[1,0.25,0],[1,0.5,0],[1,0.75,0]];outlineConnect=0;fontColor=#232F3E;fillColor=#DD344C;strokeColor=#ffffff;dashed=0;verticalLabelPosition=bottom;verticalAlign=top;align=center;html=1;fontSize=12;fontStyle=0;aspect=fixed;shape=mxgraph.aws4.resourceIcon;resIcon=mxgraph.aws4.waf;" vertex="1" parent="LKA8LstfFL_o_HX39kRL-61">
          <mxGeometry x="50" y="36" width="78" height="78" as="geometry" />
        </mxCell>
        <mxCell id="LKA8LstfFL_o_HX39kRL-72" value="Client&#39;s request is inspected. According to our configuration, the user could be determined to be a valid customer or a bot. If the client is determined to be a bot, the request is rejected." style="text;html=1;align=left;verticalAlign=middle;whiteSpace=wrap;rounded=0;" vertex="1" parent="LKA8LstfFL_o_HX39kRL-61">
          <mxGeometry x="5.5" y="140" width="159" height="110" as="geometry" />
        </mxCell>
        <mxCell id="LKA8LstfFL_o_HX39kRL-75" value="" style="endArrow=classic;html=1;rounded=0;" edge="1" parent="1">
          <mxGeometry width="50" height="50" relative="1" as="geometry">
            <mxPoint x="370" y="160" as="sourcePoint" />
            <mxPoint x="480" y="160" as="targetPoint" />
          </mxGeometry>
        </mxCell>
        <mxCell id="LKA8LstfFL_o_HX39kRL-76" value="Client is valid&lt;br&gt;according to&lt;br&gt;WAF rules.&lt;br&gt;User requests&lt;br&gt;a pass" style="edgeLabel;html=1;align=center;verticalAlign=middle;resizable=0;points=[];" vertex="1" connectable="0" parent="LKA8LstfFL_o_HX39kRL-75">
          <mxGeometry x="-0.0238" relative="1" as="geometry">
            <mxPoint as="offset" />
          </mxGeometry>
        </mxCell>
        <mxCell id="LKA8LstfFL_o_HX39kRL-78" value="" style="endArrow=classic;html=1;rounded=0;" edge="1" parent="1">
          <mxGeometry width="50" height="50" relative="1" as="geometry">
            <mxPoint x="670" y="160" as="sourcePoint" />
            <mxPoint x="780" y="160" as="targetPoint" />
          </mxGeometry>
        </mxCell>
        <mxCell id="LKA8LstfFL_o_HX39kRL-79" value="Send request to&lt;br&gt;reserve pass&lt;br&gt;along with&amp;nbsp;&lt;br&gt;CF token" style="edgeLabel;html=1;align=center;verticalAlign=middle;resizable=0;points=[];" vertex="1" connectable="0" parent="LKA8LstfFL_o_HX39kRL-78">
          <mxGeometry x="-0.04" y="-2" relative="1" as="geometry">
            <mxPoint as="offset" />
          </mxGeometry>
        </mxCell>
        <mxCell id="LKA8LstfFL_o_HX39kRL-85" value="" style="shape=flexArrow;endArrow=classic;startArrow=classic;html=1;rounded=0;" edge="1" parent="1">
          <mxGeometry width="100" height="100" relative="1" as="geometry">
            <mxPoint x="874.75" y="470" as="sourcePoint" />
            <mxPoint x="874.75" y="360" as="targetPoint" />
          </mxGeometry>
        </mxCell>
        <mxCell id="LKA8LstfFL_o_HX39kRL-86" value="Validate CF token&lt;br&gt;generated by CF Turnstile&lt;br&gt;widget" style="edgeLabel;html=1;align=center;verticalAlign=middle;resizable=0;points=[];" vertex="1" connectable="0" parent="LKA8LstfFL_o_HX39kRL-85">
          <mxGeometry x="0.0831" y="-1" relative="1" as="geometry">
            <mxPoint as="offset" />
          </mxGeometry>
        </mxCell>
        <mxCell id="LKA8LstfFL_o_HX39kRL-90" value="Cloudflare" style="swimlane;whiteSpace=wrap;html=1;" vertex="1" parent="1">
          <mxGeometry x="489.5" y="490" width="170" height="160" as="geometry" />
        </mxCell>
        <mxCell id="LKA8LstfFL_o_HX39kRL-95" value="Cloudflare Analytics" style="verticalLabelPosition=bottom;aspect=fixed;html=1;shape=mxgraph.salesforce.analytics2;" vertex="1" parent="LKA8LstfFL_o_HX39kRL-90">
          <mxGeometry x="60.5" y="30" width="40" height="40" as="geometry" />
        </mxCell>
        <mxCell id="LKA8LstfFL_o_HX39kRL-92" value="Metrics are collected such as peak hours and turnstile success rates." style="text;html=1;align=left;verticalAlign=top;whiteSpace=wrap;rounded=0;" vertex="1" parent="LKA8LstfFL_o_HX39kRL-90">
          <mxGeometry x="10" y="100" width="150" height="80" as="geometry" />
        </mxCell>
        <mxCell id="LKA8LstfFL_o_HX39kRL-96" value="" style="endArrow=classic;html=1;rounded=0;" edge="1" parent="1">
          <mxGeometry width="50" height="50" relative="1" as="geometry">
            <mxPoint x="570" y="360" as="sourcePoint" />
            <mxPoint x="570" y="480" as="targetPoint" />
          </mxGeometry>
        </mxCell>
        <mxCell id="LKA8LstfFL_o_HX39kRL-98" value="Analytics data sent to CF Servers" style="edgeLabel;html=1;align=center;verticalAlign=middle;resizable=0;points=[];" vertex="1" connectable="0" parent="LKA8LstfFL_o_HX39kRL-96">
          <mxGeometry x="-0.0804" y="1" relative="1" as="geometry">
            <mxPoint as="offset" />
          </mxGeometry>
        </mxCell>
        <mxCell id="LKA8LstfFL_o_HX39kRL-99" value="" style="endArrow=classic;html=1;rounded=0;" edge="1" parent="1">
          <mxGeometry width="50" height="50" relative="1" as="geometry">
            <mxPoint x="780" y="580" as="sourcePoint" />
            <mxPoint x="670" y="580" as="targetPoint" />
          </mxGeometry>
        </mxCell>
        <mxCell id="LKA8LstfFL_o_HX39kRL-100" value="Analytics data&lt;br&gt;sent to CF Servers" style="edgeLabel;html=1;align=center;verticalAlign=middle;resizable=0;points=[];" vertex="1" connectable="0" parent="LKA8LstfFL_o_HX39kRL-99">
          <mxGeometry x="-0.0804" y="1" relative="1" as="geometry">
            <mxPoint as="offset" />
          </mxGeometry>
        </mxCell>
        <mxCell id="LKA8LstfFL_o_HX39kRL-102" value="DUP PUBLIC" style="swimlane;whiteSpace=wrap;html=1;" vertex="1" parent="1">
          <mxGeometry x="1090" y="100" width="169" height="140" as="geometry" />
        </mxCell>
        <mxCell id="LKA8LstfFL_o_HX39kRL-105" value="User fills out contact form." style="text;html=1;align=left;verticalAlign=top;whiteSpace=wrap;rounded=0;" vertex="1" parent="LKA8LstfFL_o_HX39kRL-102">
          <mxGeometry x="9" y="90" width="160" height="30" as="geometry" />
        </mxCell>
        <mxCell id="LKA8LstfFL_o_HX39kRL-121" value="Form" style="html=1;whiteSpace=wrap;strokeColor=none;fillColor=#0079D6;labelPosition=center;verticalLabelPosition=middle;verticalAlign=top;align=center;fontSize=12;outlineConnect=0;spacingTop=-6;fontColor=#FFFFFF;sketch=0;shape=mxgraph.sitemap.form;" vertex="1" parent="LKA8LstfFL_o_HX39kRL-102">
          <mxGeometry x="51.75" y="30" width="65.5" height="50" as="geometry" />
        </mxCell>
        <mxCell id="LKA8LstfFL_o_HX39kRL-106" value="" style="endArrow=classic;html=1;rounded=0;" edge="1" parent="1">
          <mxGeometry width="50" height="50" relative="1" as="geometry">
            <mxPoint x="970" y="169.57" as="sourcePoint" />
            <mxPoint x="1080" y="169.57" as="targetPoint" />
          </mxGeometry>
        </mxCell>
        <mxCell id="LKA8LstfFL_o_HX39kRL-107" value="JWT sent to&lt;br&gt;client" style="edgeLabel;html=1;align=center;verticalAlign=middle;resizable=0;points=[];" vertex="1" connectable="0" parent="LKA8LstfFL_o_HX39kRL-106">
          <mxGeometry x="-0.04" y="-2" relative="1" as="geometry">
            <mxPoint as="offset" />
          </mxGeometry>
        </mxCell>
        <mxCell id="LKA8LstfFL_o_HX39kRL-108" value="DUP API" style="swimlane;whiteSpace=wrap;html=1;" vertex="1" parent="1">
          <mxGeometry x="1400" y="90" width="170" height="210" as="geometry" />
        </mxCell>
        <mxCell id="LKA8LstfFL_o_HX39kRL-109" value="1. Validate time of submission is within the seven minutes.&lt;br&gt;2. Turn temporary pass into a committed pass.&lt;br&gt;3. Return generated pass object with QR information." style="text;html=1;align=left;verticalAlign=top;whiteSpace=wrap;rounded=0;" vertex="1" parent="LKA8LstfFL_o_HX39kRL-108">
          <mxGeometry x="10" y="90" width="160" height="150" as="geometry" />
        </mxCell>
        <mxCell id="LKA8LstfFL_o_HX39kRL-110" value="Write Pass" style="sketch=0;outlineConnect=0;fontColor=#232F3E;gradientColor=none;fillColor=#E7157B;strokeColor=none;dashed=0;verticalLabelPosition=bottom;verticalAlign=top;align=center;html=1;fontSize=12;fontStyle=0;aspect=fixed;pointerEvents=1;shape=mxgraph.aws4.endpoint;" vertex="1" parent="LKA8LstfFL_o_HX39kRL-108">
          <mxGeometry x="61" y="30" width="38" height="38" as="geometry" />
        </mxCell>
        <mxCell id="LKA8LstfFL_o_HX39kRL-112" value="" style="endArrow=classic;html=1;rounded=0;" edge="1" parent="1">
          <mxGeometry width="50" height="50" relative="1" as="geometry">
            <mxPoint x="1280" y="170" as="sourcePoint" />
            <mxPoint x="1390" y="170" as="targetPoint" />
          </mxGeometry>
        </mxCell>
        <mxCell id="LKA8LstfFL_o_HX39kRL-113" value="Form and JWT&lt;br&gt;is sent back to&lt;br&gt;API" style="edgeLabel;html=1;align=center;verticalAlign=middle;resizable=0;points=[];" vertex="1" connectable="0" parent="LKA8LstfFL_o_HX39kRL-112">
          <mxGeometry x="-0.04" y="-2" relative="1" as="geometry">
            <mxPoint as="offset" />
          </mxGeometry>
        </mxCell>
        <mxCell id="LKA8LstfFL_o_HX39kRL-122" value="DUP PUBLIC" style="swimlane;whiteSpace=wrap;html=1;" vertex="1" parent="1">
          <mxGeometry x="1700" y="90" width="169" height="140" as="geometry" />
        </mxCell>
        <mxCell id="LKA8LstfFL_o_HX39kRL-123" value="Display pass info" style="text;html=1;align=left;verticalAlign=top;whiteSpace=wrap;rounded=0;" vertex="1" parent="LKA8LstfFL_o_HX39kRL-122">
          <mxGeometry x="4.5" y="65" width="160" height="30" as="geometry" />
        </mxCell>
        <mxCell id="LKA8LstfFL_o_HX39kRL-131" value="" style="verticalLabelPosition=bottom;verticalAlign=top;html=1;shape=mxgraph.basic.smiley" vertex="1" parent="LKA8LstfFL_o_HX39kRL-122">
          <mxGeometry x="66.75" y="29" width="35.5" height="36" as="geometry" />
        </mxCell>
        <mxCell id="LKA8LstfFL_o_HX39kRL-125" value="" style="endArrow=classic;html=1;rounded=0;" edge="1" parent="1">
          <mxGeometry width="50" height="50" relative="1" as="geometry">
            <mxPoint x="1580" y="170" as="sourcePoint" />
            <mxPoint x="1690" y="170" as="targetPoint" />
          </mxGeometry>
        </mxCell>
        <mxCell id="LKA8LstfFL_o_HX39kRL-126" value="Return pass&amp;nbsp;&lt;br&gt;information" style="edgeLabel;html=1;align=center;verticalAlign=middle;resizable=0;points=[];" vertex="1" connectable="0" parent="LKA8LstfFL_o_HX39kRL-125">
          <mxGeometry x="-0.04" y="-2" relative="1" as="geometry">
            <mxPoint as="offset" />
          </mxGeometry>
        </mxCell>
      </root>
    </mxGraphModel>
  </diagram>
</mxfile>
